<?xml version="1.0" encoding="UTF-8" standalone="no"?>
<!-- Created with Inkscape (http://www.inkscape.org/) -->
<svg
   xmlns:dc="http://purl.org/dc/elements/1.1/"
   xmlns:cc="http://web.resource.org/cc/"
   xmlns:rdf="http://www.w3.org/1999/02/22-rdf-syntax-ns#"
   xmlns:svg="http://www.w3.org/2000/svg"
   xmlns="http://www.w3.org/2000/svg"
   xmlns:sodipodi="http://sodipodi.sourceforge.net/DTD/sodipodi-0.dtd"
   xmlns:inkscape="http://www.inkscape.org/namespaces/inkscape"
   width="400"
   height="90"
   id="svg2275"
   sodipodi:version="0.32"
   inkscape:version="0.45.1"
   version="1.0"
   sodipodi:docbase="C:\Users\Fernando\Documents\+backup!\!!!!comiccovers!"
   sodipodi:docname="banco_santander_logo_byjerez.svg"
   inkscape:output_extension="org.inkscape.output.svg.inkscape">
  <defs
     id="defs2277" />
  <sodipodi:namedview
     id="base"
     pagecolor="#ffffff"
     bordercolor="#666666"
     borderopacity="1.0"
     inkscape:pageopacity="0.0"
     inkscape:pageshadow="2"
     inkscape:zoom="1.2763355"
     inkscape:cx="349.70492"
     inkscape:cy="126.96871"
     inkscape:document-units="px"
     inkscape:current-layer="layer1"
     width="400px"
     height="90px"
     inkscape:window-width="1366"
     inkscape:window-height="706"
     inkscape:window-x="-8"
     inkscape:window-y="-8" />
  <metadata
     id="metadata2280">
    <rdf:RDF>
      <cc:Work
         rdf:about="">
        <dc:format>image/svg+xml</dc:format>
        <dc:type
           rdf:resource="http://purl.org/dc/dcmitype/StillImage" />
      </cc:Work>
    </rdf:RDF>
  </metadata>
  <g
     inkscape:label="Capa 1"
     inkscape:groupmode="layer"
     id="layer1"
     transform="translate(231.16471,-263.02882)">
    <g
       id="g4382"
       transform="matrix(0.9866125,0,0,0.9866125,-46.512715,-17.145699)">
      <path
         sodipodi:nodetypes="csssccssssssscccscsssssscsssscsssscc"
         inkscape:connector-curvature="0"
         id="path2996"
         d="M -137.25896,287.82282 C -137.53748,290.28292 -137.42095,292.92088 -136.71336,295.05097 C -135.76046,297.9195 -134.44241,299.98751 -129.58905,306.30164 C -124.46782,312.96425 -122.82885,315.37921 -121.61009,318.83428 C -120.61377,321.65874 -120.59328,323.29079 -121.02061,325.85474 C -116.53369,326.70939 -109.17944,329.09201 -104.25001,332.04797 C -99.677697,334.85994 -96.353472,338.50601 -95.13597,342.04337 C -94.415735,344.13595 -94.445169,347.37943 -95.209416,349.40805 C -95.943377,351.35627 -96.949571,352.98288 -98.434385,354.60939 C -104.33564,361.0738 -116.02077,365.71729 -130.0965,367.19545 C -133.21004,367.52242 -140.84031,367.75504 -143.45708,367.60274 C -162.25976,366.50845 -177.37971,360.01209 -181.68264,351.18412 C -183.47212,347.51278 -183.42843,344.35212 -181.54242,340.72133 C -179.98733,337.7276 -175.72483,334.02779 -170.7124,331.3135 C -165.89035,328.99199 -161.36323,327.2573 -156.51052,325.89182 C -156.27492,329.05968 -150.10112,336.63161 -148.0575,339.31249 C -143.60141,345.1455 -141.83866,347.92758 -140.57931,350.15586 C -139.82291,351.49424 -139.39558,352.34889 -139.60924,354.8965 C -139.60924,354.8965 -137.8945,353.34401 -137.24751,352.02541 C -136.41039,350.3193 -136.11177,348.58786 -136.27268,346.36336 C -136.4665,343.68387 -136.92167,342.04204 -138.20232,339.41932 C -139.44744,336.86937 -141.23206,334.28988 -144.62555,330.12501 C -149.41713,324.24423 -151.19143,321.01357 -151.92346,316.81784 C -152.73601,312.16056 -151.42706,307.21052 -148.74523,304.79932 C -148.16169,304.27467 -147.22288,303.76439 -147.22288,303.76439 C -147.22288,303.76439 -147.303,304.96451 -147.303,306.32834 C -147.303,309.21281 -146.97396,310.71454 -145.86746,312.91182 C -144.4934,315.64041 -142.59156,318.19116 -136.7601,325.13064 C -131.59913,331.27224 -129.99634,334.39239 -129.99634,338.29092 C -129.99634,339.20634 -129.99444,340.17013 -129.99444,340.17013 C -129.99444,340.17013 -128.63114,339.13024 -127.99994,338.17741 C -125.99917,335.15713 -125.6823,330.44576 -127.20538,326.2724 C -128.24947,323.41155 -129.94143,320.808 -134.94397,314.52097 C -140.03657,308.12075 -142.1732,302.99285 -142.1732,298.7196 C -142.1732,294.44635 -141.24551,290.36962 -137.25897,287.82282 L -137.25896,287.82282 z "
         style="fill:#fe001e;fill-opacity:1;display:inline" />
      <g
         style="fill:#fe001e;fill-opacity:1"
         id="g2258">
        <path
           sodipodi:nodetypes="sssssssssscccssssssssssscccssss"
           inkscape:connector-curvature="0"
           id="path3010"
           d="M -41.591055,350.74642 C -41.475861,349.31893 -41.58471,347.91437 -41.740673,347.16489 C -42.353677,344.21916 -44.527148,341.25901 -47.674638,339.08316 C -48.628857,338.42351 -51.495276,336.93834 -54.459741,335.56761 C -60.400317,332.82078 -62.068196,331.83038 -63.546394,330.17187 C -64.994802,328.5468 -65.530005,327.10385 -65.543904,324.78643 C -65.553155,323.2438 -65.466254,322.77724 -64.966842,321.68832 C -63.351737,318.16675 -59.316078,316.29333 -54.624985,316.88747 C -51.858524,317.23784 -50.409287,317.85592 -48.779346,319.38054 C -47.074654,320.97508 -46.206856,322.82208 -45.73749,325.85474 L -45.597744,327.56404 L -43.033794,327.56404 L -43.247457,315.8126 L -44.102107,315.59894 C -44.747735,315.43754 -49.005916,314.62758 -51.259801,314.34325 C -54.625581,313.91864 -55.989722,313.86856 -57.969899,314.09691 C -61.80757,314.53947 -64.981709,315.99593 -67.376568,318.41319 C -69.815705,320.87513 -70.999393,323.48799 -71.183335,326.81622 C -71.371993,330.22981 -70.282141,333.05682 -67.843318,335.48005 C -65.796325,337.51394 -64.923315,338.03973 -58.597018,341.0488 C -50.500882,344.89969 -48.669057,346.03738 -47.441254,348.93029 C -46.375807,351.44066 -46.298147,354.2601 -47.401402,356.51531 C -50.220815,362.27861 -59.093691,363.78167 -64.616965,359.43798 C -66.679255,357.81613 -68.19108,355.35896 -68.682894,352.82963 L -68.942554,351.49424 L -71.130413,351.49382 L -70.740445,362.74547 C -70.740445,362.74547 -66.535302,363.87557 -64.574816,364.08411 C -63.093148,364.24172 -61.616821,364.52765 -60.126794,364.52765 C -57.135519,364.52765 -55.74929,364.92023 -52.648607,363.88667 C -49.443669,362.81835 -42.392807,360.68173 -41.591055,350.74642 L -41.591055,350.74642 z "
           style="fill:#fe001e;fill-opacity:1;display:inline" />
        <path
           style="fill:#fe001e;fill-opacity:1;display:inline"
           d="M -21.881207,332.26462 C -18.462607,332.26462 -15.471332,333.76025 -14.051051,335.96734 C -12.708206,338.05409 -12.693719,339.84724 -12.693719,341.02478 L -12.693719,357.26313 C -12.693719,359.18609 -11.30017,359.80555 -9.2903835,359.12969 L -7.7794819,358.5451 L -7.7794819,360.68173 L -15.25958,363.95045 C -16.127564,364.33708 -16.721213,363.453 -17.135803,361.8205 L -17.607957,360.2544 L -18.85178,361.22625 C -20.612686,362.60212 -22.949519,363.88667 -26.368119,363.88667 C -29.595143,363.90045 -31.709682,363.45934 -33.808155,360.1112 C -34.790759,358.17673 -34.896729,355.57565 -34.068557,353.70133 C -33.108374,351.52824 -31.205953,350.4138 -23.218508,347.32484 L -17.821619,345.29803 L -17.821619,343.80239 C -17.821619,338.24717 -19.317257,336.53787 -21.240219,335.46955 C -22.786839,334.61032 -24.839324,334.8326 -26.795444,336.11054 C -28.412838,337.16719 -28.903887,338.94954 -28.072653,340.78142 C -27.431246,342.19496 -27.652005,341.75147 -27.652005,341.79632 L -32.038763,344.11322 C -32.038763,344.11322 -32.796728,342.81424 -33.013598,342.10346 C -34.021284,338.80082 -32.727617,336.93827 -27.77219,334.2113 C -25.181175,332.78547 -23.657606,332.26462 -21.881207,332.26462 z M -17.821619,347.64832 C -17.821619,347.64832 -24.852957,350.61658 -26.203106,351.3043 C -27.282676,351.8542 -28.520186,352.83437 -28.932069,353.63087 C -29.468339,354.6679 -29.379139,356.563 -28.718407,357.69045 C -28.098305,358.74858 -27.347807,359.61276 -26.368119,360.04074 C -26.015576,360.19475 -24.840433,360.46356 -24.017832,360.46807 C -22.350459,360.47721 -20.592529,359.77921 -18.798365,358.28839 L -17.821619,357.47679 L -17.821619,347.64832 z "
           id="path3798"
           inkscape:connector-curvature="0"
           sodipodi:nodetypes="ssssscccccsccscccsssccssscsssssscc" />
        <path
           style="fill:#fe001e;fill-opacity:1;display:inline"
           d="M 4.1856181,332.26462 L 4.1856181,338.01347 L 5.6545478,336.62467 C 8.8379481,333.61492 11.877468,332.26462 14.227756,332.26462 C 19.569318,332.26462 24.483556,336.96519 24.269893,343.58873 C 24.269893,343.58873 24.269893,350.94597 24.269893,358.97243 C 24.269893,360.68173 24.697218,361.75004 26.406518,361.75004 L 29.184131,361.75004 L 29.184131,363.88667 L 14.441418,363.88667 L 14.441418,361.75004 L 16.578043,361.75004 C 18.287343,361.75004 18.928331,360.68173 18.928331,358.97243 L 18.928331,343.58873 C 18.928331,340.38379 17.752375,338.78051 16.791706,337.81984 C 15.509731,336.53787 13.951084,336.17742 11.663806,336.3242 C 9.8864113,336.43827 8.0656222,337.37818 5.9750415,339.06843 L 4.6129431,340.17013 L 4.6129431,360.04074 C 4.6129431,361.10905 5.0402681,361.75004 6.1085806,361.75004 L 8.8861931,361.75004 L 8.8861931,363.88667 L -5.6428569,363.88667 L -5.6428569,361.75004 L -3.7198944,361.75004 C -2.0105944,361.75004 -0.72861943,360.68173 -0.72861943,358.97243 L -0.72861943,342.52042 C -0.72861943,338.24717 -2.0105944,336.96519 -5.6428569,338.88815 L -5.6428997,336.60464 C -3.2925694,335.89688 0.98068057,333.76025 3.3309681,332.26462 L 4.1856181,332.26462 z "
           id="path3812"
           inkscape:connector-curvature="0"
           sodipodi:nodetypes="ccsssssccccsssssscssccccssscccc" />
        <path
           sodipodi:nodetypes="ssccssscccccccccsss"
           inkscape:connector-curvature="0"
           id="path3825"
           d="M 45.422481,363.88667 C 47.345443,363.88667 47.797106,363.673 49.588899,362.16101 L 53.114331,359.18609 L 52.259681,357.69045 L 50.687766,358.52808 C 48.340493,359.77886 46.490793,360.04074 44.140506,358.97243 C 42.13789,358.06215 40.935568,354.91284 40.935568,353.20354 L 40.935568,335.90476 L 50.764043,335.89687 L 51.832356,332.9056 L 40.935568,332.9056 L 40.935568,323.07712 L 39.867256,323.07713 C 37.303306,327.7777 33.457381,332.26462 28.756806,335.04223 L 28.756806,335.89688 L 35.594006,335.89687 L 35.594006,353.20354 C 35.594006,357.26313 37.089643,360.2544 39.439931,361.9637 C 41.670026,363.58559 43.072193,363.88667 45.422481,363.88667 L 45.422481,363.88667 z "
           style="fill:#fe001e;fill-opacity:1;display:inline" />
        <path
           sodipodi:nodetypes="ssssscccccsccscccsssccssscsssssscc"
           inkscape:connector-curvature="0"
           id="path3810"
           d="M 68.070748,332.26462 C 71.489348,332.26462 74.480623,333.76025 75.900904,335.96734 C 77.243749,338.05409 77.258236,339.84724 77.258236,341.02478 L 77.258236,357.26313 C 77.258236,359.18609 78.65176,359.80555 80.661529,359.12969 L 82.172422,358.5451 L 82.172422,360.68173 L 74.692376,363.95045 C 73.824391,364.33708 73.230743,363.453 72.816152,361.8205 L 72.343998,360.2544 L 71.100175,361.22625 C 69.339269,362.60212 67.002436,363.88667 63.583836,363.88667 C 60.356812,363.90045 58.242273,363.45934 56.1438,360.1112 C 55.161196,358.17673 55.055226,355.57565 55.883399,353.70133 C 56.843581,351.52824 58.746002,350.4138 66.733448,347.32484 L 72.130336,345.29803 L 72.130336,343.80239 C 72.130336,338.24717 70.634698,336.53787 68.711736,335.46955 C 67.165116,334.61032 65.112632,334.8326 63.156511,336.11054 C 61.539118,337.16719 61.048068,338.94954 61.879303,340.78142 C 62.520709,342.19496 62.299951,341.75147 62.299951,341.79632 L 57.913192,344.11322 C 57.913192,344.11322 57.155227,342.81424 56.938357,342.10346 C 55.930672,338.80082 57.224338,336.93827 62.179765,334.2113 C 64.77078,332.78547 66.29435,332.26462 68.070748,332.26462 L 68.070748,332.26462 z M 72.130336,347.64832 C 72.130336,347.64832 65.098998,350.61658 63.748849,351.3043 C 62.669279,351.8542 61.431769,352.83437 61.019886,353.63087 C 60.483616,354.6679 60.572816,356.563 61.233548,357.69045 C 61.85365,358.74858 62.604148,359.61276 63.583836,360.04074 C 63.936379,360.19475 65.111523,360.46356 65.934123,360.46807 C 67.601496,360.47721 69.359426,359.77921 71.15359,358.28839 L 72.130336,357.47679 L 72.130336,347.64832 z "
           style="fill:#fe001e;fill-opacity:1;display:inline" />
        <path
           sodipodi:nodetypes="ccsssssccccsssssscssccccssscccc"
           inkscape:connector-curvature="0"
           id="path3823"
           d="M 94.137522,332.26462 L 94.137522,338.01347 L 95.606452,336.62467 C 98.789852,333.61492 101.82937,332.26462 104.17966,332.26462 C 109.52122,332.26462 114.43546,336.96519 114.2218,343.58873 C 114.2218,343.58873 114.2218,350.94597 114.2218,358.97243 C 114.2218,360.68173 114.64912,361.75004 116.35842,361.75004 L 119.13603,361.75004 L 119.13603,363.88667 L 104.39332,363.88667 L 104.39332,361.75004 L 106.52995,361.75004 C 108.23925,361.75004 108.88023,360.68173 108.88023,358.97243 L 108.88023,343.58873 C 108.88023,340.38379 107.70428,338.78051 106.74361,337.81984 C 105.46163,336.53787 103.90299,336.17742 101.61571,336.3242 C 99.838315,336.43827 98.017526,337.37818 95.926945,339.06843 L 94.564847,340.17013 L 94.564847,360.04074 C 94.564847,361.10905 94.992172,361.75004 96.060485,361.75004 L 98.838097,361.75004 L 98.838097,363.88667 L 84.309047,363.88667 L 84.309047,361.75004 L 86.23201,361.75004 C 87.94131,361.75004 89.223285,360.68173 89.223285,358.97243 L 89.223285,342.52042 C 89.223285,338.24717 87.94131,336.96519 84.309047,338.88815 L 84.309004,336.60464 C 86.659335,335.89688 90.932585,333.76025 93.282872,332.26462 L 94.137522,332.26462 z "
           style="fill:#fe001e;fill-opacity:1;display:inline" />
        <path
           sodipodi:nodetypes="ccsccccccsccssssssscccssssccsss"
           inkscape:connector-curvature="0"
           id="path3830"
           d="M 157.59529,360.2544 L 157.59529,358.11778 C 155.245,359.18609 154.17669,359.18609 153.37266,358.64197 C 152.22183,357.86317 152.25373,356.40848 152.25373,356.40848 L 152.25373,309.40273 L 151.61274,309.40273 C 148.52004,311.36369 144.77556,313.24865 141.5706,314.31697 L 141.5706,316.66725 C 143.2799,316.02627 144.55938,315.68785 145.63019,316.23993 C 146.33049,316.62559 146.6985,317.09458 146.6985,318.16289 L 146.6985,326.02244 L 146.6985,334.13791 L 145.44409,333.63123 C 142.92636,332.61427 141.62631,332.37808 138.57933,332.38406 C 136.02937,332.38906 135.49614,332.45608 133.98108,332.962 C 126.95502,335.30817 122.4599,342.17074 122.82994,349.98611 C 123.04159,354.45649 124.3358,357.96571 127.25522,360.46807 C 130.24649,363.03202 132.81044,363.88667 135.80172,363.88667 C 139.8613,363.88667 142.21354,363.07628 145.15511,361.08037 C 146.05752,360.46807 146.91217,359.82708 146.91217,359.82708 C 147.12583,361.9637 147.6474,363.24568 148.4078,364.31399 L 157.59529,360.2544 z M 135.44501,359.87162 C 131.45341,358.44575 128.55215,353.52352 128.17736,347.54149 C 127.70886,340.06366 131.85364,334.82857 138.24255,334.82857 C 140.92724,334.82857 142.98877,335.56416 145.4721,337.40823 L 146.7028,338.32213 L 146.59167,357.52443 L 145.22128,358.35301 C 142.89164,359.76158 141.76696,360.09305 139.00665,360.18465 C 137.0104,360.25089 136.34237,360.19217 135.44501,359.87162 z "
           style="fill:#fe001e;fill-opacity:1;display:inline" />
        <path
           sodipodi:nodetypes="sccssccssssssssssccs"
           inkscape:connector-curvature="0"
           id="path3835"
           d="M 180.56401,363.5664 C 182.33993,363.09565 184.73043,362.17737 187.50804,360.46807 L 187.50804,358.33144 C 185.15775,360.04074 181.43287,361.10328 178.10689,361.10905 C 174.49762,361.11532 171.69702,360.04074 169.77405,357.90412 C 166.93694,354.75175 166.14179,352.13523 165.65122,345.72536 L 188.14903,345.72535 C 188.14903,345.72535 188.14903,342.52042 186.86705,339.52914 C 185.98835,337.4788 185.15775,335.89688 182.80747,334.40124 C 180.60713,333.00103 177.63562,332.40694 175.11562,332.39077 C 172.49445,332.37395 172.08813,332.42447 170.66404,332.9443 C 164.01239,335.37233 159.48514,342.26157 160.0403,349.11076 C 160.57736,355.73665 164.44843,361.04933 170.293,363.18162 C 172.87981,364.12538 177.76484,364.30838 180.56401,363.5664 L 180.56401,363.5664 z M 168.27842,337.17885 C 169.77405,335.68322 171.48335,334.82857 174.26097,334.82857 C 176.82492,334.82857 178.53422,335.46955 180.24352,337.17885 C 181.52549,338.46083 182.16648,339.52914 182.43992,343.16141 L 165.65639,343.16141 C 165.92813,340.59745 166.78278,338.67449 168.27842,337.17885 z "
           style="fill:#fe001e;fill-opacity:1;display:inline" />
        <path
           style="fill:#fe001e;fill-opacity:1;display:inline"
           d="M 200.75512,332.26462 L 200.75512,339.31548 C 201.87945,337.38096 202.89174,336.11054 204.8147,334.18758 C 206.29844,332.70386 208.2333,332.26462 209.72894,332.26462 C 210.79725,332.26462 213.57487,333.11927 213.57487,333.11927 L 213.57487,339.52914 L 212.50655,339.52914 C 212.07923,337.81984 210.58359,336.96519 208.44697,336.96519 C 205.66935,336.96519 203.85322,338.08692 202.73149,339.76951 C 201.60979,341.4521 201.18244,342.30675 201.18244,345.93902 L 201.18244,360.04074 C 201.18244,361.10905 201.60977,361.75004 202.67808,361.75004 L 205.45569,361.75004 L 205.45569,363.88667 L 190.92664,363.88667 L 190.92664,361.75004 L 192.8496,361.75004 C 194.5589,361.75004 195.84088,360.68173 195.84088,358.97243 L 195.84088,342.52042 C 195.84088,337.81984 194.13158,338.0335 191.1403,339.31548 L 191.1403,337.17885 C 193.91792,336.11054 197.33652,334.6149 199.90047,332.26462 L 200.75512,332.26462 z "
           id="path3842"
           inkscape:connector-curvature="0"
           sodipodi:nodetypes="ccsscccsssssccccssscccc" />
      </g>
    </g>
  </g>
</svg>
